<svg width="1440" height="894" viewBox="0 0 1440 894" fill="none" xmlns="http://www.w3.org/2000/svg">
<mask id="mask0_0_3" style="mask-type:alpha" maskUnits="userSpaceOnUse" x="-338" y="-51" width="2119" height="945">
<rect x="-336.942" y="-49.9419" width="2116.65" height="942.884" fill="white" fill-opacity="0.4" stroke="black" stroke-width="2.11613"/>
</mask>
<g mask="url(#mask0_0_3)">
<g opacity="0.2">
<path d="M-1004.7 28.6606L485.492 28.6607" stroke="black" stroke-miterlimit="10"/>
<path d="M-1004.7 70.8346L485.492 70.8347" stroke="black" stroke-miterlimit="10"/>
<path d="M-1004.7 114.57L485.492 114.57" stroke="black" stroke-miterlimit="10"/>
<path d="M-1004.7 158.305L485.492 158.306" stroke="black" stroke-miterlimit="10"/>
<path d="M-1004.7 200.479L485.492 200.479" stroke="black" stroke-miterlimit="10"/>
<path d="M-1004.7 244.214L485.492 244.214" stroke="black" stroke-miterlimit="10"/>
<path d="M-1004.7 287.949L485.492 287.95" stroke="black" stroke-miterlimit="10"/>
<path d="M-1004.7 330.123L485.492 330.123" stroke="black" stroke-miterlimit="10"/>
<path d="M-1004.7 373.859L485.492 373.859" stroke="black" stroke-miterlimit="10"/>
<path d="M-1004.7 417.594L485.492 417.594" stroke="black" stroke-miterlimit="10"/>
<path d="M-1004.7 461.33L485.492 461.33" stroke="black" stroke-miterlimit="10"/>
<path d="M-1004.7 503.503L485.492 503.504" stroke="black" stroke-miterlimit="10"/>
<path d="M-1004.7 547.239L485.492 547.239" stroke="black" stroke-miterlimit="10"/>
<path d="M-1004.7 590.974L485.492 590.974" stroke="black" stroke-miterlimit="10"/>
<path d="M-1004.7 633.148L485.492 633.148" stroke="black" stroke-miterlimit="10"/>
<path d="M-1004.7 676.884L485.492 676.884" stroke="black" stroke-miterlimit="10"/>
<path d="M-1004.7 720.619L485.492 720.619" stroke="black" stroke-miterlimit="10"/>
<path d="M-1004.7 762.792L485.492 762.792" stroke="black" stroke-miterlimit="10"/>
<path d="M-1004.7 806.529L485.492 806.529" stroke="black" stroke-miterlimit="10"/>
<path d="M-1004.7 850.264L485.492 850.264" stroke="black" stroke-miterlimit="10"/>
<path d="M-1004.7 892.437L485.492 892.437" stroke="black" stroke-miterlimit="10"/>
<path d="M15.1276 2537.21L15.1277 -404.008" stroke="black" stroke-miterlimit="10"/>
<path d="M54.6779 2537.21L54.678 -404.008" stroke="black" stroke-miterlimit="10"/>
<path d="M92.8158 2537.21L92.8159 -404.008" stroke="black" stroke-miterlimit="10"/>
<path d="M132.366 2537.21L132.366 -404.008" stroke="black" stroke-miterlimit="10"/>
<path d="M171.917 2537.21L171.917 -404.008" stroke="black" stroke-miterlimit="10"/>
<path d="M211.467 2537.21L211.467 -404.008" stroke="black" stroke-miterlimit="10"/>
<path d="M249.605 2537.21L249.605 -404.008" stroke="black" stroke-miterlimit="10"/>
<path d="M289.155 2537.21L289.155 -404.008" stroke="black" stroke-miterlimit="10"/>
<path d="M328.706 2537.21L328.706 -404.008" stroke="black" stroke-miterlimit="10"/>
<path d="M368.256 2537.21L368.256 -404.008" stroke="black" stroke-miterlimit="10"/>
<path d="M407.806 2537.21L407.806 -404.008" stroke="black" stroke-miterlimit="10"/>
<path d="M445.945 2537.21L445.945 -404.008" stroke="black" stroke-miterlimit="10"/>
<path d="M485.495 2537.21L485.495 -404.008" stroke="black" stroke-miterlimit="10"/>
<path d="M485.5 28.6606L1975.69 28.6607" stroke="black" stroke-miterlimit="10"/>
<path d="M485.5 70.8346L1975.69 70.8347" stroke="black" stroke-miterlimit="10"/>
<path d="M485.5 114.57L1975.69 114.57" stroke="black" stroke-miterlimit="10"/>
<path d="M485.5 158.305L1975.69 158.306" stroke="black" stroke-miterlimit="10"/>
<path d="M485.5 200.479L1975.69 200.479" stroke="black" stroke-miterlimit="10"/>
<path d="M485.5 244.214L1975.69 244.214" stroke="black" stroke-miterlimit="10"/>
<path d="M485.5 287.949L1975.69 287.95" stroke="black" stroke-miterlimit="10"/>
<path d="M485.5 330.123L1975.69 330.123" stroke="black" stroke-miterlimit="10"/>
<path d="M485.5 373.859L1975.69 373.859" stroke="black" stroke-miterlimit="10"/>
<path d="M485.5 417.594L1975.69 417.594" stroke="black" stroke-miterlimit="10"/>
<path d="M485.5 461.33L1975.69 461.33" stroke="black" stroke-miterlimit="10"/>
<path d="M485.5 503.503L1975.69 503.504" stroke="black" stroke-miterlimit="10"/>
<path d="M485.5 547.239L1975.69 547.239" stroke="black" stroke-miterlimit="10"/>
<path d="M485.5 590.974L1975.69 590.974" stroke="black" stroke-miterlimit="10"/>
<path d="M485.5 633.148L1975.69 633.148" stroke="black" stroke-miterlimit="10"/>
<path d="M485.5 676.884L1975.69 676.884" stroke="black" stroke-miterlimit="10"/>
<path d="M485.5 720.619L1975.69 720.619" stroke="black" stroke-miterlimit="10"/>
<path d="M485.5 762.792L1975.69 762.792" stroke="black" stroke-miterlimit="10"/>
<path d="M485.5 806.529L1975.69 806.529" stroke="black" stroke-miterlimit="10"/>
<path d="M485.5 850.264L1975.69 850.264" stroke="black" stroke-miterlimit="10"/>
<path d="M485.5 892.437L1975.69 892.437" stroke="black" stroke-miterlimit="10"/>
<path d="M525.046 2537.21L525.046 -404.008" stroke="black" stroke-miterlimit="10"/>
<path d="M563.184 2537.21L563.184 -404.008" stroke="black" stroke-miterlimit="10"/>
<path d="M602.734 2537.21L602.734 -404.008" stroke="black" stroke-miterlimit="10"/>
<path d="M642.284 2537.21L642.284 -404.008" stroke="black" stroke-miterlimit="10"/>
<path d="M681.834 2537.21L681.835 -404.008" stroke="black" stroke-miterlimit="10"/>
<path d="M721.385 2537.21L721.385 -404.008" stroke="black" stroke-miterlimit="10"/>
<path d="M759.523 2537.21L759.523 -404.008" stroke="black" stroke-miterlimit="10"/>
<path d="M799.073 2537.21L799.073 -404.008" stroke="black" stroke-miterlimit="10"/>
<path d="M838.624 2537.21L838.624 -404.008" stroke="black" stroke-miterlimit="10"/>
<path d="M878.174 2537.21L878.174 -404.008" stroke="black" stroke-miterlimit="10"/>
<path d="M916.312 2537.21L916.312 -404.008" stroke="black" stroke-miterlimit="10"/>
<path d="M955.862 2537.21L955.862 -404.008" stroke="black" stroke-miterlimit="10"/>
<path d="M995.413 2537.21L995.413 -404.008" stroke="black" stroke-miterlimit="10"/>
<path d="M1034.96 2537.21L1034.96 -404.008" stroke="black" stroke-miterlimit="10"/>
<path d="M1073.1 2537.21L1073.1 -404.008" stroke="black" stroke-miterlimit="10"/>
<path d="M1112.65 2537.21L1112.65 -404.008" stroke="black" stroke-miterlimit="10"/>
<path d="M1152.2 2537.21L1152.2 -404.008" stroke="black" stroke-miterlimit="10"/>
<path d="M1191.75 2537.21L1191.75 -404.008" stroke="black" stroke-miterlimit="10"/>
<path d="M1229.89 2537.21L1229.89 -404.008" stroke="black" stroke-miterlimit="10"/>
<path d="M1269.44 2537.21L1269.44 -404.008" stroke="black" stroke-miterlimit="10"/>
<path d="M1308.99 2537.21L1308.99 -404.008" stroke="black" stroke-miterlimit="10"/>
<path d="M1348.54 2537.21L1348.54 -404.008" stroke="black" stroke-miterlimit="10"/>
<path d="M1388.09 2537.21L1388.09 -404.008" stroke="black" stroke-miterlimit="10"/>
<path d="M1426.23 2537.21L1426.23 -404.008" stroke="black" stroke-miterlimit="10"/>
</g>
</g>
</svg>
